<svg width="20" height="20" viewBox="0 0 20 20" fill="none" xmlns="http://www.w3.org/2000/svg">
<g clip-path="url(#clip0_694_2435)">
<path d="M10 20C15.5228 20 20 15.5228 20 10C20 4.47715 15.5228 0 10 0C4.47715 0 0 4.47715 0 10C0 15.5228 4.47715 20 10 20Z" fill="#F0F0F0"/>
<path d="M5.65234 13.4773L6.52191 19.3771C7.6052 19.7791 8.77695 19.9991 10.0002 19.9991C14.2998 19.9991 17.9652 17.2853 19.3781 13.4773L5.65234 13.4773Z" fill="black"/>
<path d="M5.65234 6.52225L6.52191 0.622402C7.6052 0.22041 8.77695 0.000488281 10.0002 0.000488281C14.2998 0.000488281 17.9652 2.71424 19.3781 6.52225L5.65234 6.52225Z" fill="#6DA544"/>
<path d="M0 10.0001C0 14.2997 2.71379 17.9652 6.52176 19.3781L6.52176 0.62207C2.71379 2.035 0 5.70043 0 10.0001Z" fill="#A2001D"/>
</g>
<defs>
<clipPath id="clip0_694_2435">
<rect width="20" height="20" fill="white"/>
</clipPath>
</defs>
</svg>
