<svg width="118" height="48" viewBox="0 0 118 48" fill="none" xmlns="http://www.w3.org/2000/svg">
<g clip-path="url(#clip0_555_7098)">
<path d="M25.8203 4.33043C25.8203 6.72243 27.7587 8.66325 30.1531 8.66325C32.5475 8.66325 34.486 6.72482 34.486 4.33043C34.486 1.93843 32.5475 0 30.1531 0C27.7611 0 25.8203 1.93843 25.8203 4.33043Z" fill="#414143"/>
<path d="M95.0623 48C95.0623 48 94.4942 47.3268 94.2984 47.0929C92.9783 45.5054 91.5627 43.9561 90.1876 42.4139C89.8391 42.0224 89.4977 41.6428 89.1563 41.2633C88.5452 40.5853 87.9126 39.8811 87.2275 39.0981C82.835 34.3713 81.0756 29.647 81.6915 24.2304C82.6965 15.3977 90.2163 8.49379 99.1803 8.17151C100.522 8.12377 101.873 8.22642 103.196 8.48185C109.474 9.6874 113.831 13.3327 116.146 19.3199C117.662 23.2373 117.65 27.2956 116.115 31.3825C114.174 36.5437 110.555 40.1962 105.356 42.2373C103.494 42.9678 101.558 43.3736 99.6005 43.4452C98.2899 43.4929 96.9411 43.3903 95.5923 43.1396C95.5064 43.1229 95.4395 43.1182 95.3799 43.1205C95.2772 43.1253 95.196 43.1563 95.1411 43.2184C95.0552 43.3115 95.0433 43.4428 95.0528 43.6266C95.0814 44.2234 95.0623 48.0048 95.0623 48.0048V48ZM106.681 30.3202C106.392 31.3563 105.783 32.2324 104.819 32.9987C103.437 34.0968 101.747 34.7223 99.7938 34.8583C99.6482 34.8679 99.505 34.875 99.3617 34.8822C97.1798 34.961 95.3512 34.4549 93.778 33.3353C92.7443 32.6 92.1046 31.7048 91.8229 30.5948C91.6629 29.9645 91.1736 29.5706 90.5791 29.5921C90.4956 29.5945 90.4096 29.6064 90.3237 29.6255C89.6362 29.7855 89.2327 30.4444 89.3807 31.1629C89.6171 32.2968 90.1685 33.3329 91.0184 34.2472C92.594 35.9374 94.6398 36.9281 97.2801 37.2718C98.0249 37.3697 98.7649 37.4055 99.4811 37.3793C101.298 37.3148 103.012 36.8684 104.721 36.0161C106.817 34.9085 108.192 33.4523 108.923 31.5616C108.989 31.3897 109.049 31.2059 109.102 31.0149C109.319 30.2367 109.006 29.5754 108.326 29.3677C108.183 29.3247 108.037 29.3056 107.891 29.3104C107.321 29.3319 106.843 29.7282 106.679 30.3226L106.681 30.3202Z" fill="#AC3378"/>
<path d="M48.8691 42.1465C47.9882 42.1465 47.0405 42.0653 46.057 41.8982C41.7289 41.1796 38.8666 38.4534 37.7757 34.0036C37.3722 32.3779 37.1478 30.5708 37.1073 28.6395C37.0309 25.2234 37.0619 16.1901 37.0619 15.0347C37.0619 12.4899 38.5754 11.8143 40.287 11.8143C41.9987 11.8143 43.5886 12.2512 43.5981 14.9177C43.6125 19.4392 43.5337 23.9773 43.7103 28.5035C43.7485 30.122 43.9658 31.5949 44.3525 32.884C44.966 34.9132 46.5153 36.0041 48.8405 36.0352C51.211 36.0352 52.7722 35.0015 53.4574 33.0464C53.837 31.9602 54.059 30.6711 54.0876 29.3199C54.1449 26.6319 53.8799 23.8245 53.8751 21.1771C53.8728 19.5704 53.9181 16.8872 53.9157 14.7292C53.9133 11.812 56.2218 11.812 57.3557 11.812C58.6687 11.812 60.7384 11.812 60.7933 14.7888C60.8363 17.0376 60.7384 19.241 60.7337 21.4946C60.7289 24.0202 60.7217 26.6343 60.779 29.1981C60.8053 30.5445 61.0201 31.8384 61.4021 32.9437C62.092 34.9585 63.6747 36.028 65.9808 36.0376C68.2892 36.0376 69.8815 34.98 70.5738 32.9819C70.9605 31.8694 71.1754 30.5159 71.2112 28.9594C71.2733 26.2571 71.2661 23.4974 71.2566 20.8357C71.2566 18.7278 71.2351 16.7726 71.2518 14.7148C71.2757 11.8096 73.226 11.8096 74.6584 11.8096C75.7732 11.8096 77.5636 11.8096 77.7307 14.827C77.8119 16.2808 77.7952 17.4124 77.8071 18.8614C77.8405 22.5616 77.8692 26.1353 77.7212 29.6565C77.64 31.6641 77.1673 33.8413 76.3151 36.1354C75.291 38.8879 73.0923 40.7881 69.9603 41.6308C68.7524 41.9555 67.5205 42.1178 66.3007 42.1178C62.4596 42.1178 59.2058 40.5279 57.4393 37.828C57.4059 37.8709 57.3748 37.9139 57.3414 37.9593C55.3027 40.7738 52.5288 42.1417 48.8667 42.1417L48.8691 42.1465Z" fill="#414143"/>
<path d="M11.6402 42.1347C8.4031 42.1347 5.15885 42.2397 1.94803 41.7837C1.09579 41.662 0.525243 41.2944 0.238776 40.4755C-0.0142702 39.757 -0.0596275 38.9167 0.07167 38.1695C0.250712 37.1454 0.802162 36.2454 1.43478 35.4409C4.8318 31.0961 8.15244 26.7251 11.6999 22.5021C11.9457 22.2109 14.6457 18.6515 14.481 18.5823C14.0059 18.3841 13.476 18.365 12.9603 18.3507C10.4967 18.2886 4.51191 18.451 3.94375 18.4486C0.210129 18.4295 0.210129 15.6842 0.210129 15.1471C0.210129 14.524 0.210129 11.8837 3.60716 11.8742C6.27846 11.867 8.99035 11.7882 11.6641 11.7954C14.8415 11.8049 18.0165 11.8837 21.1891 12.0604C22.1679 12.1153 23.001 12.2275 23.4355 13.1967C23.7697 13.9439 23.8079 14.8439 23.7052 15.646C23.5429 16.9279 22.9485 18.143 22.1559 19.1504C18.5273 23.7721 14.8629 28.4869 11.3131 33.0584L9.43677 35.4719C9.25295 35.7082 9.07152 35.9494 8.88054 36.2096C9.27444 36.231 9.63968 36.2454 10.0002 36.2478H16.5197C17.9496 36.2478 21.3657 36.2931 21.6331 36.3003C24.197 36.3743 24.197 38.3438 24.197 39.2676C24.197 40.1915 24.197 42.1442 21.6642 42.1442C20.757 42.1442 15.2664 42.1084 13.4903 42.1251C12.872 42.1299 12.2537 42.1347 11.6378 42.1347H11.6402Z" fill="#414143"/>
<path d="M33.013 42.1467C29.8022 42.1299 26.9495 40.6833 26.8492 36.5892C26.7752 33.5383 26.7585 30.4421 26.7418 27.4437L26.737 26.2668C26.7203 23.3878 26.7227 20.2964 26.7394 16.811C26.7418 16.2357 26.7991 15.3596 26.8014 14.7484C26.8205 11.8193 28.6778 11.7978 29.9932 11.8193C31.5138 11.8432 33.2589 11.8193 33.2589 14.7484C33.2589 15.6269 33.1801 32.0582 33.1801 32.0582C33.1682 32.5786 33.161 33.0656 33.2112 33.5407C33.391 35.2834 33.9981 36.208 35.0326 36.3147C35.7559 36.3887 36.9973 36.0926 37.4437 36.8518C37.6538 37.2123 37.6729 37.6467 37.6872 38.0645C37.7182 39.0146 37.7469 39.9647 37.7779 40.9148C37.7827 41.0294 37.7827 41.1536 37.7111 41.2419C37.6562 41.3111 37.5678 41.3445 37.4819 41.3732C36.0758 41.8602 34.505 42.1586 33.013 42.1514V42.1467Z" fill="#414143"/>
</g>
<defs>
<clipPath id="clip0_555_7098">
<rect width="117.275" height="48" fill="white"/>
</clipPath>
</defs>
</svg>
