<svg width="98" height="40" viewBox="0 0 98 40" fill="none" xmlns="http://www.w3.org/2000/svg">
<g clip-path="url(#clip0_555_7133)">
<path d="M21.5166 3.60869C21.5166 5.60203 23.132 7.21938 25.1273 7.21938C27.1226 7.21938 28.738 5.60402 28.738 3.60869C28.738 1.61536 27.1226 0 25.1273 0C23.1339 0 21.5166 1.61536 21.5166 3.60869Z" fill="white"/>
<path d="M79.2183 39.9999C79.2183 39.9999 78.7448 39.4389 78.5817 39.244C77.4816 37.9211 76.3019 36.63 75.156 35.3448C74.8656 35.0186 74.5811 34.7023 74.2966 34.386C73.7874 33.821 73.2602 33.2341 72.6892 32.5816C69.0288 28.6427 67.5627 24.7058 68.0759 20.1919C68.9134 12.8313 75.1799 7.07808 82.6499 6.80951C83.768 6.76973 84.8939 6.85527 85.996 7.06813C91.228 8.07276 94.8586 11.1105 96.7883 16.0998C98.0515 19.3643 98.0416 22.7463 96.7624 26.152C95.1451 30.453 92.1292 33.4967 87.7964 35.1976C86.2447 35.8064 84.6313 36.1446 83.0001 36.2043C81.9079 36.244 80.7839 36.1585 79.6599 35.9496C79.5883 35.9357 79.5326 35.9317 79.4829 35.9337C79.3973 35.9377 79.3297 35.9635 79.2839 36.0153C79.2123 36.0928 79.2024 36.2023 79.2103 36.3554C79.2342 36.8528 79.2183 40.0039 79.2183 40.0039V39.9999ZM88.9005 25.2668C88.6598 26.1301 88.1525 26.8602 87.3488 27.4988C86.197 28.4139 84.7885 28.9351 83.1612 29.0485C83.0399 29.0565 82.9205 29.0625 82.8011 29.0684C80.9829 29.1341 79.459 28.7123 78.148 27.7793C77.2866 27.1666 76.7535 26.4206 76.5187 25.4955C76.3855 24.9704 75.9776 24.6421 75.4823 24.66C75.4127 24.662 75.341 24.6719 75.2694 24.6879C74.6965 24.8212 74.3603 25.3702 74.4836 25.969C74.6806 26.914 75.1401 27.7773 75.8483 28.5393C77.1613 29.9477 78.8662 30.7733 81.0664 31.0598C81.6871 31.1413 82.3038 31.1712 82.9006 31.1493C84.4145 31.0956 85.8429 30.7236 87.2672 30.0134C89.0139 29.0903 90.1598 27.8768 90.7685 26.3012C90.8242 26.158 90.8739 26.0048 90.9177 25.8457C91.0987 25.1971 90.8381 24.6461 90.2712 24.473C90.1518 24.4372 90.0305 24.4213 89.9091 24.4253C89.4336 24.4432 89.0358 24.7734 88.8985 25.2688L88.9005 25.2668Z" fill="#AC3378"/>
<path d="M40.7244 35.1221C39.9904 35.1221 39.2006 35.0544 38.381 34.9152C34.7743 34.3164 32.389 32.0445 31.4799 28.3364C31.1437 26.9816 30.9567 25.4757 30.9229 23.8663C30.8592 21.0195 30.8851 13.4918 30.8851 12.5289C30.8851 10.4083 32.1463 9.84529 33.5727 9.84529C34.9991 9.84529 36.324 10.2093 36.3319 12.4315C36.3439 16.1993 36.2782 19.9811 36.4254 23.7529C36.4573 25.1017 36.6383 26.3291 36.9606 27.4033C37.4718 29.0943 38.7629 30.0034 40.7006 30.0293C42.676 30.0293 43.977 29.1679 44.548 27.5386C44.8643 26.6335 45.0493 25.5592 45.0732 24.4332C45.1209 22.1932 44.9001 19.8537 44.8961 17.6475C44.8941 16.3087 44.9319 14.0727 44.9299 12.2743C44.928 9.8433 46.8517 9.8433 47.7966 9.8433C48.8907 9.8433 50.6155 9.8433 50.6613 12.324C50.6971 14.198 50.6155 16.0342 50.6115 17.9121C50.6076 20.0169 50.6016 22.1952 50.6493 24.3318C50.6712 25.4538 50.8503 26.532 51.1686 27.4531C51.7435 29.1321 53.0624 30.0233 54.9842 30.0313C56.9079 30.0313 58.2348 29.15 58.8117 27.4849C59.1339 26.5579 59.313 25.4299 59.3428 24.1328C59.3946 21.8809 59.3886 19.5812 59.3806 17.3631C59.3806 15.6065 59.3627 13.9772 59.3766 12.2624C59.3965 9.84131 61.0218 9.84131 62.2155 9.84131C63.1445 9.84131 64.6365 9.84131 64.7758 12.3559C64.8434 13.5674 64.8295 14.5103 64.8394 15.7179C64.8673 18.8014 64.8911 21.7794 64.7678 24.7137C64.7002 26.3868 64.3063 28.2011 63.5961 30.1129C62.7426 32.4066 60.9104 33.9901 58.3004 34.6924C57.2938 34.9629 56.2673 35.0982 55.2507 35.0982C52.0499 35.0982 49.3384 33.7733 47.8662 31.5233C47.8384 31.5591 47.8125 31.5949 47.7847 31.6327C46.0858 33.9782 43.7741 35.1181 40.7224 35.1181L40.7244 35.1221Z" fill="white"/>
<path d="M9.70015 35.1122C7.00258 35.1122 4.29904 35.1998 1.62336 34.8198C0.913159 34.7183 0.437703 34.412 0.19898 33.7296C-0.0118918 33.1308 -0.0496896 32.4306 0.059725 31.8079C0.208927 30.9545 0.668468 30.2045 1.19565 29.5341C4.0265 25.9134 6.7937 22.2709 9.74988 18.7518C9.95479 18.509 12.2047 15.5429 12.0675 15.4852C11.6716 15.3201 11.23 15.3042 10.8003 15.2923C8.74725 15.2405 3.75993 15.3758 3.28646 15.3738C0.175108 15.3579 0.175108 13.0701 0.175108 12.6225C0.175108 12.1033 0.175108 9.90309 3.00596 9.89513C5.23205 9.88917 7.49196 9.82352 9.72004 9.82948C12.3679 9.83744 15.0137 9.90309 17.6576 10.0503C18.4732 10.0961 19.1675 10.1896 19.5296 10.9972C19.8081 11.6199 19.8399 12.3699 19.7544 13.0383C19.6191 14.1066 19.1237 15.1192 18.4633 15.9587C15.4394 19.8101 12.3858 23.7391 9.42761 27.5487L7.86397 29.5599C7.71079 29.7569 7.5596 29.9578 7.40045 30.1746C7.7287 30.1925 8.03307 30.2045 8.33346 30.2065H13.7664C14.958 30.2065 17.8048 30.2443 18.0276 30.2502C20.1642 30.3119 20.1642 31.9531 20.1642 32.723C20.1642 33.4929 20.1642 35.1202 18.0535 35.1202C17.2975 35.1202 12.722 35.0903 11.2419 35.1043C10.7267 35.1082 10.2114 35.1122 9.69816 35.1122H9.70015Z" fill="white"/>
<path d="M27.511 35.1221C24.8353 35.1082 22.458 33.9027 22.3745 30.4909C22.3128 27.9485 22.2989 25.3683 22.285 22.8697L22.281 21.8889C22.2671 19.4898 22.2691 16.9136 22.283 14.0091C22.285 13.5297 22.3327 12.7996 22.3347 12.2903C22.3506 9.84934 23.8983 9.83144 24.9945 9.84934C26.2617 9.86924 27.7159 9.84934 27.7159 12.2903C27.7159 13.0224 27.6503 26.7151 27.6503 26.7151C27.6403 27.1488 27.6343 27.5546 27.6761 27.9505C27.826 29.4027 28.3319 30.1733 29.194 30.2621C29.7968 30.3238 30.8312 30.0771 31.2033 30.7097C31.3783 31.0101 31.3942 31.3722 31.4062 31.7203C31.432 32.5121 31.4559 33.3039 31.4818 34.0956C31.4857 34.1911 31.4857 34.2946 31.4261 34.3682C31.3803 34.4259 31.3067 34.4537 31.2351 34.4776C30.0634 34.8834 28.7544 35.1321 27.511 35.1261V35.1221Z" fill="white"/>
</g>
<defs>
<clipPath id="clip0_555_7133">
<rect width="97.7291" height="40" fill="white"/>
</clipPath>
</defs>
</svg>
