<svg width="49" height="49" viewBox="0 0 49 49" fill="none" xmlns="http://www.w3.org/2000/svg">
<g clip-path="url(#clip0_2356_66179)">
<path d="M22.9566 12.2325H33.4724C35.4054 12.2171 36.9854 13.7712 37.0009 15.7043C37.0009 15.7241 37.0009 15.7447 37.0009 15.7644V26.2759C37.0009 33.9858 30.7541 40.2325 23.0442 40.2325H22.9643C15.2588 40.2394 9.00687 33.9987 9 26.2931V26.2802C9 18.5489 15.2364 12.3124 22.9566 12.2325Z" fill="#3EB66F"/>
<path d="M22.9558 18.4688C19.4153 18.4688 16.5449 21.3391 16.5449 24.8796V29.2388C16.5698 30.4055 17.5097 31.3454 18.6764 31.3712H20.4901V26.3633H18.0398V24.9629C18.1884 22.3263 20.3706 20.2643 23.0116 20.2643C25.6526 20.2643 27.8296 22.3228 27.9783 24.9629V26.3633H25.4937V31.3746H27.132V31.4545C27.1148 32.5371 26.242 33.4099 25.1629 33.4228H23.2058C23.0468 33.4228 22.8716 33.5027 22.8716 33.6617C22.8793 33.8429 23.0245 33.9881 23.2058 33.9959H25.1749C26.577 33.9873 27.7119 32.8524 27.7205 31.4502V31.2913C28.6853 31.0739 29.3683 30.2122 29.3589 29.2234V24.9638C29.4388 21.3529 26.5744 18.473 22.948 18.473L22.9566 18.4688H22.9558Z" fill="white"/>
</g>
<defs>
<clipPath id="clip0_2356_66179">
<rect width="28" height="28" fill="white" transform="translate(9 12.2324)"/>
</clipPath>
</defs>
</svg>
