<svg width="62" height="73" viewBox="0 0 62 73" fill="none" xmlns="http://www.w3.org/2000/svg">
<path d="M53.1901 15.8122C58.8261 23.071 61.6507 31.4024 61.6507 40.78C61.6507 49.8046 58.748 57.3773 52.9558 63.4983C47.1635 69.6062 39.9915 72.6667 31.4658 72.6667C22.6798 72.6667 15.3256 69.6324 9.39015 63.5768C3.46772 57.495 0.5 49.9877 0.5 41.0547C0.5 32.5533 3.28549 25.4253 8.84346 19.6705C14.4144 13.9157 21.5995 10.7768 30.4375 10.2405V0.666687C39.9655 3.50483 47.554 8.55334 53.1901 15.8122Z" fill="#F8E7F1"/>
<path d="M43.4992 42C43.4992 48.2592 38.4251 53.3334 32.1658 53.3334C30.7301 53.3334 29.3568 53.0664 28.0927 52.5794C27.8616 52.4904 27.746 52.4458 27.6542 52.4247C27.5638 52.4038 27.4983 52.3951 27.4057 52.3916C27.3114 52.388 27.208 52.3987 27.0013 52.42L20.1732 53.1258C19.5222 53.1931 19.1967 53.2268 19.0047 53.1097C18.8375 53.0077 18.7236 52.8372 18.6933 52.6437C18.6585 52.4215 18.814 52.1336 19.1251 51.5578L21.306 47.5211C21.4856 47.1887 21.5754 47.0224 21.616 46.8626C21.6562 46.7048 21.6659 46.591 21.6531 46.4286C21.6401 46.2642 21.5679 46.0502 21.4237 45.6222C21.0403 44.4848 20.8325 43.2667 20.8325 42C20.8325 35.7408 25.9066 30.6667 32.1658 30.6667C38.4251 30.6667 43.4992 35.7408 43.4992 42Z" stroke="#AC3378" stroke-width="3" stroke-linecap="round" stroke-linejoin="round"/>
<path fill-rule="evenodd" clip-rule="evenodd" d="M32.1617 38.599C30.9621 37.2139 28.9617 36.8413 27.4587 38.1097C25.9556 39.378 25.744 41.4987 26.9244 42.9988C27.6556 43.9281 29.491 45.6256 30.7818 46.7826C31.2559 47.2077 31.493 47.4202 31.7775 47.5058C32.0215 47.5792 32.3019 47.5792 32.546 47.5058C32.8305 47.4202 33.0676 47.2077 33.5417 46.7826C34.8324 45.6256 36.6678 43.9281 37.3991 42.9988C38.5794 41.4987 38.3937 39.3647 36.8648 38.1097C35.3359 36.8546 33.3613 37.2139 32.1617 38.599Z" stroke="#AC3378" stroke-width="3" stroke-linecap="round" stroke-linejoin="round"/>
</svg>
