<svg width="62" height="73" viewBox="0 0 62 73" fill="none" xmlns="http://www.w3.org/2000/svg">
<path d="M52.6901 15.4788C58.3261 22.7377 61.1507 31.069 61.1507 40.4467C61.1507 49.4712 58.248 57.044 52.4558 63.1649C46.6635 69.2728 39.4915 72.3333 30.9658 72.3333C22.1798 72.3333 14.8256 69.299 8.89015 63.2434C2.96772 57.1617 0 49.6543 0 40.7213C0 32.22 2.78549 25.0919 8.34346 19.3371C13.9144 13.5824 21.0995 10.4434 29.9375 9.90717V0.333328C39.4655 3.17148 47.054 8.21998 52.6901 15.4788Z" fill="#F8E7F1"/>
<path d="M32.3335 29L20.4581 43.2505C19.993 43.8086 19.7605 44.0876 19.7569 44.3233C19.7538 44.5282 19.8451 44.7231 20.0045 44.8519C20.1878 45 20.551 45 21.2775 45H31.0001L29.6668 55.6667L41.5422 41.4162C42.0073 40.8581 42.2398 40.5791 42.2434 40.3434C42.2465 40.1385 42.1552 39.9436 41.9958 39.8148C41.8125 39.6667 41.4492 39.6667 40.7228 39.6667H31.0001L32.3335 29Z" stroke="#AC3378" stroke-width="3" stroke-linecap="round" stroke-linejoin="round"/>
</svg>
