<svg width="45" height="32" viewBox="0 0 45 32" fill="none" xmlns="http://www.w3.org/2000/svg">
<g clip-path="url(#clip0_2356_66142)">
<path fill-rule="evenodd" clip-rule="evenodd" d="M18.7264 3.6132C20.1773 2.12578 22.198 1.20217 24.4332 1.20217C27.4037 1.20217 29.9952 2.83208 31.3752 5.25233C32.6095 4.70903 33.9469 4.43021 35.2999 4.43123C40.6577 4.43123 45 8.74279 45 14.0631C45 19.3833 40.6577 23.6949 35.2999 23.6949C34.6447 23.6949 34.0062 23.6303 33.3886 23.5083C32.1731 25.6405 29.8566 27.0828 27.1985 27.0828C26.0861 27.0828 25.0331 26.8307 24.0967 26.3796C22.8646 29.2325 19.994 31.2324 16.6485 31.2324C13.303 31.2324 10.196 29.0623 9.05647 26.0198C8.54923 26.1254 8.03157 26.1787 7.51287 26.1787C3.36325 26.1787 2.03988e-05 22.8348 2.03988e-05 18.7088C-0.00622902 16.0487 1.42385 13.5854 3.75592 12.2394C3.28097 11.161 3.0362 9.99854 3.03724 8.82378C3.03724 4.0786 6.95042 0.232428 11.7771 0.232428C14.5028 0.229352 17.0734 1.47997 18.7264 3.6132Z" fill="#17A0DA"/>
<path fill-rule="evenodd" clip-rule="evenodd" d="M6.51893 16.3087L6.70121 15.8115C6.73037 15.7264 6.79599 15.7541 6.82203 15.7705C6.87307 15.8003 6.90952 15.8269 6.97514 15.8648C7.51155 16.198 8.00838 16.2021 8.16357 16.2021C8.56562 16.2021 8.81455 15.993 8.81455 15.71V15.6957C8.81455 15.3892 8.43021 15.2723 7.98755 15.1391L7.8886 15.1083C7.28032 14.9381 6.6283 14.6911 6.6283 13.9325V13.9172C6.6283 13.1975 7.21783 12.6952 8.06254 12.6952H8.15524C8.65103 12.6942 9.13015 12.8357 9.47803 13.0438C9.50928 13.0632 9.53949 13.0991 9.52178 13.1463L9.3343 13.6434C9.30097 13.7285 9.21139 13.6722 9.21139 13.6722C8.84892 13.4866 8.44792 13.3851 8.03858 13.3759C7.68028 13.3759 7.45009 13.5625 7.45009 13.8167V13.8321C7.45009 14.1283 7.84485 14.2544 8.3021 14.401L8.38126 14.4246C8.98849 14.6132 9.63531 14.8746 9.63531 15.5942V15.6096C9.63531 16.3866 9.0614 16.8694 8.13857 16.8694C7.68549 16.8694 7.2522 16.8008 6.79286 16.5609C6.70641 16.5117 6.62101 16.4686 6.5356 16.4081C6.52726 16.3958 6.48768 16.3805 6.51581 16.3077L6.51893 16.3087ZM20.0323 16.3087L20.2145 15.8115C20.2416 15.7305 20.3177 15.7603 20.3354 15.7705C20.3854 15.8013 20.4229 15.8269 20.4885 15.8648C21.0259 16.198 21.5217 16.2021 21.6779 16.2021C22.0779 16.2021 22.3279 15.993 22.3279 15.71V15.6957C22.3279 15.3892 21.9446 15.2723 21.5009 15.1391L21.4019 15.1083C20.7926 14.9381 20.1416 14.6911 20.1416 13.9325V13.9172C20.1416 13.1975 20.7322 12.6952 21.5769 12.6952H21.6686C22.1644 12.6942 22.6445 12.8357 22.9924 13.0438C23.0226 13.0632 23.0539 13.0991 23.0362 13.1463C23.0195 13.1904 22.8653 13.5973 22.8487 13.6434C22.8143 13.7285 22.7258 13.6722 22.7258 13.6722C22.3633 13.4866 21.9613 13.3851 21.553 13.3759C21.1947 13.3759 20.9645 13.5625 20.9645 13.8167V13.8321C20.9645 14.1283 21.3582 14.2544 21.8165 14.401L21.8956 14.4246C22.5029 14.6132 23.1497 14.8746 23.1497 15.5942V15.6096C23.1497 16.3866 22.5758 16.8694 21.654 16.8694C21.1999 16.8694 20.7666 16.8008 20.3083 16.5609C20.2218 16.5117 20.1364 16.4686 20.051 16.4081C20.0416 16.3958 20.0031 16.3805 20.0323 16.3077M30.0282 13.9684C30.1042 14.2185 30.1417 14.4933 30.1417 14.7834C30.1417 15.0735 30.1042 15.3482 30.0282 15.5973C29.9584 15.8382 29.8397 16.0627 29.6782 16.2564C29.5168 16.445 29.3147 16.5947 29.0856 16.6952C28.8492 16.8018 28.5721 16.8551 28.2596 16.8551C27.9472 16.8551 27.6691 16.8018 27.4337 16.6952C27.2056 16.5947 27.0025 16.445 26.841 16.2564C26.6796 16.0627 26.5608 15.8382 26.491 15.5973C26.414 15.3328 26.3754 15.0581 26.3775 14.7823C26.3775 14.4912 26.415 14.2175 26.491 13.9674C26.5671 13.7152 26.6848 13.4938 26.841 13.3082C27.0025 13.1196 27.2056 12.9679 27.4337 12.8654C27.6691 12.7567 27.9461 12.7024 28.2596 12.7024C28.5731 12.7024 28.8492 12.7567 29.0856 12.8654C29.321 12.973 29.521 13.1227 29.6782 13.3082C29.8345 13.4938 29.9532 13.7152 30.0282 13.9674M29.2585 14.7823C29.2585 14.3426 29.1762 13.9981 29.0116 13.7552C28.8492 13.5153 28.6033 13.3985 28.2607 13.3985C27.918 13.3985 27.6743 13.5143 27.5139 13.7552C27.3535 13.9971 27.2712 14.3426 27.2712 14.7823C27.2712 15.2221 27.3535 15.5686 27.5149 15.8126C27.6743 16.0555 27.918 16.1734 28.2607 16.1734C28.6033 16.1734 28.8492 16.0555 29.0116 15.8126C29.1752 15.5686 29.2585 15.2211 29.2585 14.7823ZM36.3568 16.0565L36.5464 16.5711C36.5714 16.6337 36.5151 16.6613 36.5151 16.6613C36.2235 16.7731 35.8183 16.852 35.4235 16.852C34.7549 16.852 34.2434 16.6624 33.9018 16.2892C33.5623 15.9161 33.3894 15.4097 33.3894 14.7803C33.3894 14.4892 33.4321 14.2134 33.5154 13.9643C33.5987 13.7121 33.7247 13.4907 33.8904 13.3062C34.0622 13.1155 34.2737 12.9648 34.5111 12.8633C34.7569 12.7557 35.0465 12.7014 35.3694 12.7014C35.5871 12.7014 35.7808 12.7147 35.9475 12.7393C36.1256 12.766 36.362 12.8295 36.462 12.8675C36.4797 12.8746 36.5307 12.8982 36.5099 12.9566C36.437 13.1586 36.387 13.2898 36.3203 13.4743C36.2912 13.5522 36.2308 13.5266 36.2308 13.5266C35.9777 13.4487 35.7339 13.4128 35.4173 13.4128C35.0361 13.4128 34.7497 13.5379 34.5622 13.7818C34.3726 14.0289 34.2674 14.3518 34.2664 14.7813C34.2653 15.2529 34.3851 15.6014 34.5976 15.8177C34.8101 16.033 35.1059 16.1416 35.4788 16.1416C35.6298 16.1416 35.7725 16.1324 35.9006 16.1119C36.0277 16.0924 36.1464 16.0535 36.2589 16.0104C36.2589 16.0104 36.3308 15.9837 36.3578 16.0576M40.3002 13.8259C40.4679 14.4041 40.3804 14.9033 40.3773 14.931C40.371 14.9966 40.3023 14.9976 40.3023 14.9976L37.6942 14.9956C37.7098 15.3851 37.8056 15.6619 37.9973 15.8495C38.1858 16.033 38.4847 16.1508 38.8899 16.1508C39.5086 16.1519 39.7731 16.0299 39.9606 15.9612C39.9606 15.9612 40.0325 15.9356 40.0596 16.0053L40.2294 16.4758C40.2637 16.5547 40.2366 16.5824 40.2075 16.5988C40.044 16.687 39.6482 16.853 38.8941 16.8551C38.5285 16.8571 38.2097 16.8049 37.9473 16.7054C37.6983 16.6142 37.4734 16.4676 37.2911 16.278C37.1171 16.0914 36.988 15.8679 36.912 15.625C36.8318 15.3595 36.7922 15.0827 36.7943 14.8059C36.7943 14.5148 36.8318 14.239 36.9088 13.9869C36.9849 13.7326 37.1036 13.5081 37.2619 13.3195C37.4254 13.1268 37.6306 12.973 37.8629 12.8685C38.1025 12.7578 38.3983 12.7034 38.7243 12.7034C39.0034 12.7034 39.2586 12.7629 39.47 12.8521C39.6336 12.9208 39.7981 13.0458 39.9658 13.2242C40.0721 13.3369 40.2346 13.583 40.2991 13.8249M37.7056 14.361H39.5659C39.5471 14.1252 39.5003 13.9141 39.393 13.7552C39.2294 13.5153 39.0045 13.3831 38.6618 13.3831C38.3191 13.3831 38.0764 13.5153 37.915 13.7552C37.8098 13.9141 37.7421 14.117 37.7046 14.361H37.7056ZM19.4094 13.8249C19.5771 14.403 19.4906 14.9023 19.4875 14.9299C19.4802 14.9956 19.4115 14.9966 19.4115 14.9966L16.8034 14.9945C16.8201 15.3841 16.9148 15.6608 17.1075 15.8484C17.2961 16.0319 17.595 16.1498 18.0002 16.1498C18.6189 16.1508 18.8845 16.0289 19.0719 15.9602C19.0719 15.9602 19.1428 15.9345 19.1698 16.0043L19.3396 16.4748C19.374 16.5537 19.3469 16.5814 19.3177 16.5978C19.1532 16.6859 18.7563 16.852 18.0033 16.8541C17.6367 16.8561 17.319 16.8038 17.0565 16.7044C16.8076 16.6132 16.5826 16.4666 16.4003 16.2769C16.2264 16.0904 16.0972 15.8669 16.0233 15.6239C15.942 15.3584 15.9024 15.0817 15.9045 14.8049C15.9045 14.5138 15.9431 14.238 16.0191 13.9858C16.0899 13.7419 16.2097 13.5153 16.3722 13.3185C16.5357 13.1258 16.7409 12.972 16.9721 12.8675C17.2127 12.7567 17.5085 12.7024 17.8335 12.7024C18.0897 12.7024 18.3439 12.7526 18.5803 12.851C18.7438 12.9197 18.9084 13.0448 19.0761 13.2232C19.1823 13.3359 19.3438 13.5819 19.4094 13.8239M16.8149 14.36H18.6761C18.6563 14.1242 18.6095 13.9131 18.5032 13.7542C18.3408 13.5143 18.1147 13.382 17.7721 13.382C17.4294 13.382 17.1857 13.5143 17.0263 13.7542C16.9201 13.9131 16.8523 14.116 16.8149 14.36ZM12.2153 14.237C12.2153 14.237 12.4215 14.2544 12.6454 14.2872V14.1786C12.6454 13.8362 12.5736 13.6752 12.4309 13.5666C12.2851 13.4569 12.0674 13.4005 11.7862 13.4005C11.7862 13.4005 11.1508 13.3923 10.6498 13.6609C10.6269 13.6742 10.6071 13.6824 10.6071 13.6824C10.6071 13.6824 10.5436 13.7039 10.5217 13.6404L10.3373 13.1524C10.3092 13.0817 10.3602 13.0499 10.3602 13.0499C10.5956 12.8695 11.1643 12.7608 11.1643 12.7608C11.3956 12.7209 11.6289 12.6993 11.8632 12.6973C12.384 12.6973 12.7871 12.8162 13.061 13.052C13.336 13.2888 13.4756 13.6701 13.4756 14.1847V16.5332C13.4756 16.5332 13.4829 16.6009 13.4173 16.6162C13.4173 16.6162 13.3214 16.6429 13.235 16.6624C13.1485 16.6818 12.834 16.7454 12.5777 16.7874C12.3163 16.8305 12.0507 16.852 11.7851 16.852C11.5195 16.852 11.2997 16.8284 11.0946 16.7823C10.9039 16.7433 10.7227 16.6654 10.5633 16.5558C10.4175 16.4522 10.3009 16.3138 10.2238 16.1539C10.1436 15.993 10.103 15.7951 10.103 15.5676C10.103 15.34 10.1509 15.1452 10.2425 14.9761C10.3352 14.808 10.4623 14.6644 10.6217 14.5527C10.7862 14.4389 10.9706 14.3549 11.1654 14.3046C11.3685 14.2513 11.5851 14.2237 11.808 14.2237C11.9716 14.2237 12.109 14.2267 12.2153 14.2349M11.1779 16.0391C11.1779 16.0391 11.4112 16.2205 11.9424 16.1888C12.3153 16.1662 12.6465 16.0965 12.6465 16.0965V14.9289C12.6465 14.9289 12.3132 14.8756 11.9382 14.8695C11.407 14.8633 11.181 15.056 11.182 15.055C11.0258 15.1647 10.9498 15.3267 10.9498 15.5512C10.9498 15.6947 10.9758 15.8074 11.0289 15.8864C11.0623 15.9386 11.0758 15.9571 11.1789 16.0381M33.254 12.9115C33.229 12.9812 33.1029 13.3339 33.0571 13.4497C33.0404 13.4948 33.0123 13.5245 32.9623 13.5194C32.9623 13.5194 32.8123 13.4856 32.6759 13.4856C32.5821 13.4856 32.4478 13.4969 32.3259 13.5338C32.2051 13.5707 32.0936 13.6352 32.0041 13.7234C31.9082 13.8136 31.8312 13.9418 31.7749 14.1017C31.7176 14.2626 31.6885 14.5179 31.6885 14.7752V16.687C31.6885 16.73 31.6541 16.7649 31.6104 16.7649H30.925C30.8813 16.7649 30.8448 16.731 30.8438 16.687V12.8582C30.8438 12.8152 30.8761 12.7803 30.9198 12.7803H31.5874C31.6322 12.7803 31.6635 12.8152 31.6635 12.8582V13.1709C31.7635 13.0397 31.9426 12.9228 32.1041 12.851C32.2665 12.7783 32.4478 12.725 32.7759 12.7444C32.9467 12.7547 33.1685 12.8008 33.2133 12.8172C33.2498 12.8316 33.2675 12.8716 33.2529 12.9074C33.2529 12.9074 33.2529 12.9074 33.2529 12.9085M26.8202 11.134C26.8379 11.1412 26.8879 11.1648 26.8681 11.2232L26.6681 11.7624C26.6514 11.8034 26.641 11.827 26.5556 11.8024C26.4431 11.7675 26.3254 11.7501 26.2077 11.7491C26.1046 11.7491 26.0109 11.7624 25.9286 11.789C25.8463 11.8147 25.7713 11.8608 25.7099 11.9213C25.6286 11.9982 25.5661 12.0915 25.5265 12.196C25.4307 12.4666 25.3943 12.7567 25.3891 12.7752H26.2234C26.2942 12.7752 26.3161 12.807 26.3088 12.8582L26.2119 13.3923C26.1963 13.4702 26.1244 13.4671 26.1244 13.4671H25.2651L24.6777 16.7392C24.6277 17.0324 24.5506 17.3215 24.4485 17.6014C24.3569 17.8382 24.261 18.0114 24.109 18.1764C23.9788 18.324 23.8132 18.4378 23.6267 18.5065C23.4465 18.5721 23.2268 18.6049 22.9872 18.6049C22.8726 18.6049 22.7497 18.6029 22.6049 18.569C22.5237 18.5506 22.4445 18.528 22.3664 18.5004C22.3341 18.4891 22.3081 18.4491 22.3268 18.3979C22.3446 18.3466 22.4987 17.9314 22.5195 17.8761C22.5466 17.8105 22.6143 17.8351 22.6143 17.8351C22.6601 17.8546 22.6924 17.8669 22.7549 17.8792C22.8174 17.8915 22.9007 17.9017 22.9643 17.9017C23.0778 17.9017 23.182 17.8884 23.2715 17.8576C23.3799 17.8228 23.4434 17.7602 23.5101 17.6772C23.5788 17.5891 23.6351 17.4712 23.6923 17.3113C23.7496 17.1503 23.8027 16.9371 23.8475 16.6788L24.4319 13.4661H23.8559C23.7871 13.4661 23.7632 13.4343 23.7715 13.3831L23.8684 12.849C23.884 12.7711 23.9569 12.7742 23.9569 12.7742H24.5485L24.5808 12.6009C24.6693 12.0853 24.8454 11.6937 25.1047 11.4364C25.3661 11.1771 25.738 11.0469 26.2088 11.0469C26.3442 11.0469 26.4629 11.0561 26.5639 11.0735C26.6629 11.092 26.7379 11.1094 26.8223 11.134M15.1702 16.6849C15.1702 16.729 15.14 16.7628 15.0952 16.7628H14.4036C14.3588 16.7628 14.3286 16.728 14.3286 16.6849V11.2058C14.3286 11.1637 14.3588 11.1289 14.4026 11.1289H15.0942C15.139 11.1289 15.1692 11.1637 15.1692 11.2068V16.6859L15.1702 16.6849Z" fill="white"/>
</g>
<defs>
<clipPath id="clip0_2356_66142">
<rect width="45" height="31" fill="white" transform="translate(0 0.232422)"/>
</clipPath>
</defs>
</svg>
