<svg width="43" height="34" viewBox="0 0 43 34" fill="none" xmlns="http://www.w3.org/2000/svg">
<g clip-path="url(#clip0_2356_66192)">
<path d="M19.8928 31.8237C25.4171 30.8463 29.9806 30.0367 30.0323 30.0254L30.1278 30.0051L24.9125 23.7884C22.0436 20.3698 19.6973 17.5581 19.6973 17.5423C19.6973 17.5119 25.0822 2.65062 25.1126 2.59769C25.1227 2.57968 28.7872 8.92033 33.9969 17.9679C38.8739 26.4379 42.8947 33.4215 42.9318 33.4868L42.9992 33.6062L26.424 33.6039L9.84766 33.6017L19.8917 31.8237H19.8928Z" fill="#2586C7"/>
<path d="M0 29.9281C0 29.9191 2.45762 25.6447 5.46139 20.4289L10.9228 10.9456L17.2877 5.59355C20.7881 2.649 23.6615 0.237053 23.6728 0.232549C23.684 0.228045 23.6379 0.344025 23.5705 0.490409C23.5031 0.636792 20.3926 7.32088 16.6595 15.3438L9.87208 29.9315L4.9366 29.9382C2.22164 29.9416 0.00112374 29.9371 0.00112374 29.9281" fill="#2586C7"/>
</g>
<defs>
<clipPath id="clip0_2356_66192">
<rect width="43" height="33.3731" fill="white" transform="translate(0 0.232422)"/>
</clipPath>
</defs>
</svg>
