<svg width="46" height="5" viewBox="0 0 46 5" fill="none" xmlns="http://www.w3.org/2000/svg">
<g clip-path="url(#clip0_2356_66201)">
<path d="M0 2.55374C0 3.8048 0.956755 4.82427 2.13303 4.82427H4.76046L5.33646 3.72829V3.69417H2.17285C1.58132 3.69417 1.10245 3.18444 1.10245 2.55477C1.10245 1.9251 1.58035 1.41537 2.17285 1.41537H5.48896V0.283203H2.13303C0.956755 0.283203 0 1.30163 0 2.55374Z" fill="#BC3A3E"/>
<path d="M13.8163 3.40777V0.283203H12.7051V3.40777C12.7051 4.19357 13.3054 4.82323 14.0348 4.82323H16.4515L17.0275 3.72726V3.69314H14.0921C13.9377 3.69314 13.8163 3.5639 13.8163 3.4088" fill="#BC3A3E"/>
<path d="M43.818 3.69314H42.3095C41.718 3.69314 41.2391 3.18444 41.2391 2.55374C41.2391 1.92303 41.718 1.41433 42.3095 1.41433H43.818C44.4095 1.41433 44.8884 1.92303 44.8884 2.55374C44.8884 3.18444 44.4095 3.69314 43.818 3.69314ZM43.8666 0.284237H42.261C41.0857 0.284237 40.1289 1.30267 40.1289 2.55477C40.1289 3.80687 41.0857 4.82427 42.261 4.82427H43.8666C45.0419 4.82427 45.9996 3.80584 45.9996 2.55477C45.9996 1.3037 45.0428 0.283203 43.8666 0.283203" fill="#BC3A3E"/>
<path d="M38.9142 0.283203H37.8516V4.82323H38.9142V0.283203Z" fill="#BC3A3E"/>
<path d="M35.2878 3.1239C36.026 3.1239 36.6176 2.48492 36.6176 1.70843C36.6176 0.931944 36.0173 0.292969 35.2878 0.292969H31.2578V4.82473H32.369V1.42307H35.2878C35.4335 1.42307 35.555 1.55231 35.555 1.7074C35.555 1.86249 35.4335 1.99173 35.2878 1.99173H32.9528V3.12286L34.9314 4.82369H36.6584L34.6069 3.12286H35.2878V3.1239Z" fill="#BC3A3E"/>
<path d="M20.6774 0.232422H20.5958C20.1499 0.232422 19.842 0.422667 19.607 0.845548C19.469 1.09576 17.5312 4.83346 17.5312 4.83346H18.7473L20.5472 1.38113V1.36355C20.5637 1.32943 20.5958 1.31186 20.6278 1.31186C20.6686 1.31186 20.7007 1.3377 20.7172 1.36355L21.4797 2.83071H20.385L19.8177 3.91015H22.0392L22.518 4.82518H23.7341C23.7341 4.82518 21.7963 1.08749 21.6584 0.837277C21.4311 0.414395 21.1232 0.233456 20.6774 0.233456" fill="#BC3A3E"/>
<path d="M9.05823 0.232422H8.97664C8.52303 0.232422 8.22289 0.422667 7.98783 0.845548C7.8499 1.09576 5.91211 4.83346 5.91211 4.83346H7.12821L8.92807 1.38113V1.36355C8.94459 1.32943 8.97664 1.31186 9.01744 1.31186C9.05823 1.31186 9.08251 1.3377 9.1068 1.36355L9.86929 2.83071H8.7746L8.20735 3.91015H10.4288L10.9076 4.82518H12.1237C12.1237 4.82518 10.185 1.08646 10.047 0.836243C9.81198 0.413361 9.51184 0.232422 9.05823 0.232422Z" fill="#BC3A3E"/>
<path d="M28.6883 3.69406H25.7617V1.41525H28.5105C28.6562 1.41525 28.7786 1.5445 28.7786 1.69959C28.7786 1.85468 28.6572 1.98392 28.5105 1.98392H26.3542V3.11505H28.6893C28.8349 3.11505 28.9573 3.24429 28.9573 3.40042C28.9651 3.56481 28.8437 3.69406 28.6893 3.69406M29.849 1.70062C29.849 0.914826 29.2487 0.285156 28.5193 0.285156H24.668V4.81692H25.1954V4.82519H28.698C29.4362 4.82519 30.0277 4.18621 30.0277 3.40972C30.0277 3.03027 29.882 2.68493 29.6547 2.43472C29.7762 2.21862 29.849 1.96841 29.849 1.70062Z" fill="#BC3A3E"/>
</g>
<defs>
<clipPath id="clip0_2356_66201">
<rect width="46" height="4.6" fill="white" transform="translate(0 0.232422)"/>
</clipPath>
</defs>
</svg>
