<svg width="49" height="49" viewBox="0 0 49 49" fill="none" xmlns="http://www.w3.org/2000/svg">
<g clip-path="url(#clip0_2356_66195)">
<path d="M24.9551 8.23242H36.9581C39.1993 8.23242 40.9988 10.002 40.9988 12.2733V24.2766C40.9988 33.0951 33.8617 40.2324 25.0435 40.2324H24.9551C16.1368 40.2324 8.99884 33.0951 8.99884 24.2766C8.91138 15.4581 16.0485 8.32077 24.8668 8.23242H24.9551Z" fill="#F9A619"/>
<path d="M25.1617 16.2246C26.9312 16.2246 28.3464 17.6399 28.3464 19.4094C28.3464 21.1789 26.9312 22.5951 25.1617 22.5951C23.3922 22.5951 21.977 21.1789 21.977 19.4094C21.9478 17.6399 23.3922 16.2246 25.1617 16.2246Z" fill="white"/>
<path d="M18.1133 23.627L23.6576 29.1723V32.2688H26.3706V29.1723L31.9149 23.627H18.1133Z" fill="white"/>
</g>
<defs>
<clipPath id="clip0_2356_66195">
<rect width="32" height="32" fill="white" transform="translate(9 8.23242)"/>
</clipPath>
</defs>
</svg>
