<svg width="62" height="73" viewBox="0 0 62 73" fill="none" xmlns="http://www.w3.org/2000/svg">
<path d="M53.1901 15.4788C58.8261 22.7377 61.6507 31.069 61.6507 40.4467C61.6507 49.4712 58.748 57.044 52.9558 63.1649C47.1635 69.2728 39.9915 72.3333 31.4658 72.3333C22.6798 72.3333 15.3256 69.299 9.39015 63.2434C3.46772 57.1617 0.5 49.6543 0.5 40.7213C0.5 32.22 3.28549 25.0919 8.84346 19.3371C14.4144 13.5824 21.5995 10.4434 30.4375 9.90717V0.333328C39.9655 3.17148 47.554 8.21998 53.1901 15.4788Z" fill="#F8E7F1"/>
<path d="M27.5 38.3333V34.3333C27.5 32.1242 25.7091 30.3333 23.5 30.3333C21.2909 30.3333 19.5 32.1242 19.5 34.3333C19.5 36.5425 21.2909 38.3333 23.5 38.3333H27.5ZM27.5 38.3333V46.3333M27.5 38.3333H35.5M27.5 46.3333V50.3333C27.5 52.5425 25.7091 54.3333 23.5 54.3333C21.2909 54.3333 19.5 52.5425 19.5 50.3333C19.5 48.1242 21.2909 46.3333 23.5 46.3333H27.5ZM27.5 46.3333H35.5M35.5 46.3333H39.5C41.7091 46.3333 43.5 48.1242 43.5 50.3333C43.5 52.5425 41.7091 54.3333 39.5 54.3333C37.2909 54.3333 35.5 52.5425 35.5 50.3333V46.3333ZM35.5 46.3333V38.3333M35.5 38.3333V34.3333C35.5 32.1242 37.2909 30.3333 39.5 30.3333C41.7091 30.3333 43.5 32.1242 43.5 34.3333C43.5 36.5425 41.7091 38.3333 39.5 38.3333H35.5Z" stroke="#AC3378" stroke-width="3" stroke-linecap="round" stroke-linejoin="round"/>
</svg>
