<svg width="22" height="26" viewBox="0 0 22 26" fill="none" xmlns="http://www.w3.org/2000/svg">
<path d="M21.2148 12.2727C20.6731 11.3069 19.9112 10.5326 18.9579 9.94915C18.246 9.51983 17.5075 9.24675 16.6756 9.12991V6.06107C17.5075 5.69467 18.0239 4.88442 18.0239 3.93936C18.0239 2.65071 17.0265 1.6068 15.7843 1.6068C14.5421 1.6068 13.5268 2.65071 13.5268 3.93936C13.5268 4.88442 14.0131 5.69467 14.845 6.06107V9.1313C14.1792 9.23085 13.4894 9.44586 12.859 9.77631C11.5714 8.76282 7.35046 5.43887 4.88074 3.4976C4.93944 3.27914 4.98414 3.05307 4.98414 2.81525C4.98481 1.38903 3.87003 0.232422 2.4924 0.232422C1.11478 0.232422 0 1.38903 0 2.81594C0 4.24286 1.11611 5.39947 2.49307 5.39947C2.96273 5.39947 3.3977 5.25705 3.77263 5.02269L4.29366 5.43265L11.4546 10.7794C11.0764 11.1396 10.7235 11.5496 10.4413 12.0093C9.86954 12.9468 9.52064 13.9776 9.52064 15.1024V15.3367C9.52064 16.1262 9.6654 16.8715 9.91224 17.5718C10.1291 18.183 10.4466 18.7395 10.8402 19.2421L8.4639 21.7108C7.76074 21.4398 6.96886 21.6196 6.43982 22.1713C6.07757 22.5453 5.87476 23.0534 5.8761 23.5837C5.8761 24.1167 6.0769 24.6179 6.44116 24.9954C6.80141 25.3715 7.29175 25.5823 7.80344 25.5803C8.31513 25.5816 8.80547 25.3708 9.16639 24.9954C9.52864 24.6214 9.73145 24.1132 9.73011 23.5837C9.73011 23.377 9.69943 23.1758 9.64139 22.9843L12.0978 20.4388C12.4347 20.6801 12.7983 20.8826 13.1892 21.0575C13.9604 21.4032 14.8117 21.6134 15.743 21.6134H15.9138C16.9438 21.6134 17.9152 21.3624 18.8285 20.8494C19.7911 20.3074 20.5443 19.5663 21.1134 18.6206C21.6851 17.6721 22.0007 16.624 22.0007 15.4702V15.4128C22.0007 14.2783 21.7472 13.2316 21.2148 12.2727ZM18.2134 17.6133C17.5469 18.3814 16.7804 18.8542 15.9138 18.8542H15.771C15.276 18.8542 14.7923 18.7125 14.318 18.4547C13.7836 18.1705 13.378 17.7661 13.0458 17.2531C12.7022 16.7498 12.5161 16.2002 12.5161 15.6181V15.4411C12.5161 14.8687 12.6221 14.3253 12.889 13.813C13.1745 13.2524 13.5601 12.8161 14.0738 12.4698C14.5775 12.1255 15.1159 11.9568 15.715 11.9568H15.771C16.3147 11.9568 16.8291 12.0681 17.3147 12.3253C17.8091 12.5997 18.2134 12.9751 18.5269 13.468C18.8311 13.9617 19.0126 14.494 19.0706 15.074C19.08 15.1943 19.0846 15.3181 19.0846 15.4356C19.0846 16.2223 18.7944 16.9517 18.214 17.6133" fill="#F37722"/>
</svg>
