<svg width="20" height="20" viewBox="0 0 20 20" fill="none" xmlns="http://www.w3.org/2000/svg">
<path d="M1.66699 10.0001L18.3337 10.0001M1.66699 10.0001C1.66699 14.6025 5.39795 18.3334 10.0003 18.3334M1.66699 10.0001C1.66699 5.39771 5.39795 1.66675 10.0003 1.66675M18.3337 10.0001C18.3337 14.6025 14.6027 18.3334 10.0003 18.3334M18.3337 10.0001C18.3337 5.39771 14.6027 1.66675 10.0003 1.66675M10.0003 1.66675C12.0847 3.94871 13.2693 6.91011 13.3337 10.0001C13.2693 13.0901 12.0847 16.0515 10.0003 18.3334M10.0003 1.66675C7.91593 3.94871 6.73137 6.91011 6.66699 10.0001C6.73137 13.0901 7.91593 16.0515 10.0003 18.3334" stroke="#475467" stroke-width="1.66667" stroke-linecap="round" stroke-linejoin="round"/>
</svg>
