<svg width="32" height="33" viewBox="0 0 32 33" fill="none" xmlns="http://www.w3.org/2000/svg">
<path d="M27.7331 17.8255C27.7263 18.4146 27.2435 18.8876 26.6545 18.8808C26.0742 18.875 25.6051 18.4058 25.5992 17.8255V8.23267C25.6061 7.6436 26.0888 7.17058 26.6779 7.17741C27.2582 7.18326 27.7273 7.65237 27.7331 8.23267V17.8255ZM27.3606 24.5023C27.1958 24.6438 23.2449 27.9597 15.9995 27.9597C8.75414 27.9597 4.80327 24.6438 4.63844 24.5023C4.19079 24.119 4.1391 23.4451 4.52239 22.9984C4.9047 22.5518 5.57667 22.4991 6.02432 22.8804C6.08674 22.9331 9.61531 25.8258 15.9995 25.8258C22.3837 25.8258 25.9376 22.9116 25.9718 22.8824C26.4185 22.4991 27.0924 22.5508 27.4757 22.9984C27.859 23.4451 27.8073 24.119 27.3606 24.5023ZM4.26686 8.23267C4.27271 7.6436 4.75548 7.17058 5.34553 7.17741C5.92582 7.18326 6.39493 7.65237 6.40078 8.23267V17.8255C6.39395 18.4146 5.91119 18.8876 5.32212 18.8808C4.74183 18.875 4.27369 18.4058 4.26686 17.8255V8.23267ZM9.60068 6.09875C9.60946 5.50968 10.0952 5.03959 10.6842 5.04837C11.2606 5.05715 11.7258 5.52236 11.7346 6.09875V20.3486C11.7258 20.9377 11.2401 21.4078 10.6511 21.399C10.0747 21.3902 9.60946 20.925 9.60068 20.3486V6.09972V6.09875ZM14.9345 5.55942C14.9345 4.97035 15.4114 4.49246 16.0005 4.49246C16.5896 4.49246 17.0674 4.96937 17.0674 5.55844V21.0254C17.0606 21.6145 16.5779 22.0866 15.9888 22.0807C15.4085 22.0749 14.9394 21.6057 14.9335 21.0254V5.55942H14.9345ZM20.2683 6.09875C20.2771 5.50968 20.7618 5.03959 21.3509 5.04837C21.9273 5.05715 22.3925 5.52236 22.4013 6.09875V20.3486C22.3925 20.9377 21.9078 21.4078 21.3187 21.399C20.7423 21.3902 20.2771 20.925 20.2683 20.3486V6.09972V6.09875ZM28.0004 0.232422H3.99963C1.79062 0.232422 0 2.02304 0 4.23206V28.2318C0 30.4408 1.79062 32.2315 3.99963 32.2315H27.9994C30.2084 32.2315 31.999 30.4408 31.999 28.2318V4.23206C31.999 2.02304 30.2084 0.232422 27.9994 0.232422" fill="#4586C6"/>
</svg>
