<svg width="22" height="25" viewBox="0 0 22 25" fill="none" xmlns="http://www.w3.org/2000/svg">
<g clip-path="url(#clip0_2356_66188)">
<path d="M5.058 19.7887C4.84196 19.571 4.62591 19.4405 4.36618 19.3093C4.06355 19.1788 3.80382 19.1348 3.45831 19.1348H2.24782C1.9452 19.1348 1.64258 19.178 1.33995 19.3093C0.821288 19.527 0.389201 19.9624 0.173158 20.4851C0.0436941 20.79 0 21.095 0 21.4V22.3581C0 22.663 0.042885 22.968 0.173158 23.273C0.302622 23.5347 0.432896 23.7956 0.648939 23.9701C0.864982 24.1878 1.08103 24.3183 1.34076 24.4496C1.64339 24.5801 1.90231 24.6241 2.20494 24.6241H3.41543C3.71805 24.6241 4.02067 24.5809 4.32329 24.4496C4.58222 24.3623 4.84196 24.1878 5.01512 23.9701C5.23116 23.7524 5.36062 23.5347 5.4909 23.273C5.62036 22.968 5.66405 22.663 5.66405 22.3581V21.4C5.66405 21.095 5.62117 20.79 5.4909 20.4851C5.44801 20.2233 5.27485 19.9624 5.05881 19.7879" fill="#2E2D2C"/>
<path d="M5.53225 7.33218C5.53225 6.46133 6.22407 5.76415 7.08824 5.76415H21.9993V0.232422H7.21771C3.24154 0.232422 0.0429688 3.45573 0.0429688 7.46265V9.85832C0.0429688 13.8652 3.24154 17.0885 7.21771 17.0885H14.9977V11.5568H7.08824C6.22407 11.5568 5.53225 10.8596 5.53225 9.98878V7.33218Z" fill="#2E2D2C"/>
</g>
<defs>
<clipPath id="clip0_2356_66188">
<rect width="22" height="24.3913" fill="white" transform="translate(0 0.232422)"/>
</clipPath>
</defs>
</svg>
