<svg width="62" height="72" viewBox="0 0 62 72" fill="none" xmlns="http://www.w3.org/2000/svg">
<path d="M52.6901 15.1455C58.3261 22.4044 61.1507 30.7357 61.1507 40.1134C61.1507 49.1379 58.248 56.7106 52.4558 62.8316C46.6635 68.9395 39.4915 72 30.9658 72C22.1798 72 14.8256 68.9657 8.89015 62.9101C2.96772 56.8283 0 49.321 0 40.388C0 31.8867 2.78549 24.7586 8.34346 19.0038C13.9144 13.249 21.0995 10.1101 29.9375 9.57384V0C39.4655 2.83815 47.054 7.88665 52.6901 15.1455Z" fill="#F8E7F1"/>
<path d="M36.333 30.6699H40.7143C41.9757 30.6699 42.9997 31.6939 42.9997 32.9553V37.3366" stroke="#AC3378" stroke-width="3" stroke-linecap="round" stroke-linejoin="round"/>
<path d="M28.3333 54.6699H21.2853C20.024 54.6699 19 53.6459 19 52.3846V46.6699" stroke="#AC3378" stroke-width="3" stroke-linecap="round" stroke-linejoin="round"/>
<path fill-rule="evenodd" clip-rule="evenodd" d="M20.5497 32.0499C18.9243 32.2713 17.667 33.6499 17.667 35.3366C17.667 37.1766 19.1603 38.6699 21.0003 38.6699H28.3323C29.8057 38.6699 30.999 37.4766 30.999 36.0033C30.999 34.5299 29.8057 33.3366 28.3323 33.3366C28.3323 31.1273 26.5417 29.3366 24.3323 29.3366C22.5763 29.3366 21.0857 30.4726 20.5497 32.0499Z" stroke="#AC3378" stroke-width="3" stroke-linecap="round" stroke-linejoin="round"/>
<path d="M40.9026 47.5979V45.2873C40.9026 43.8419 39.7306 42.6699 38.2853 42.6699V42.6699C36.84 42.6699 35.668 43.8419 35.668 45.2873V47.5979" stroke="#AC3378" stroke-width="3" stroke-linecap="round" stroke-linejoin="round"/>
<path fill-rule="evenodd" clip-rule="evenodd" d="M41.285 47.6006H35.285C34.3383 47.6006 33.5703 48.3686 33.5703 49.3153V52.9566C33.5703 53.9019 34.3383 54.6699 35.285 54.6699H41.285C42.2316 54.6699 42.9996 53.9019 42.9996 52.9553V49.3139C42.9983 48.3686 42.2303 47.6006 41.285 47.6006V47.6006Z" stroke="#AC3378" stroke-width="3" stroke-linecap="round" stroke-linejoin="round"/>
</svg>
