<svg width="62" height="72" viewBox="0 0 62 72" fill="none" xmlns="http://www.w3.org/2000/svg">
<path d="M53.1901 15.1455C58.8261 22.4044 61.6507 30.7357 61.6507 40.1134C61.6507 49.1379 58.748 56.7106 52.9558 62.8316C47.1635 68.9395 39.9915 72 31.4658 72C22.6798 72 15.3256 68.9657 9.39015 62.9101C3.46772 56.8283 0.5 49.321 0.5 40.388C0.5 31.8867 3.28549 24.7586 8.84346 19.0038C14.4144 13.249 21.5995 10.1101 30.4375 9.57384V0C39.9655 2.83815 47.554 7.88665 53.1901 15.1455Z" fill="#F8E7F1"/>
<path d="M27.0587 41.2733C27.0587 41.056 26.8827 40.8813 26.6667 40.8813C26.4493 40.8827 26.2747 41.0587 26.2747 41.2747C26.2747 41.492 26.4507 41.6667 26.6667 41.6667C26.8827 41.6667 27.0587 41.4907 27.0587 41.2733" stroke="#AC3378" stroke-width="3" stroke-linecap="round" stroke-linejoin="round"/>
<path d="M26.667 40.8813V34.3333C26.667 32.492 28.159 31 30.0003 31V31C31.8417 31 33.3337 32.492 33.3337 34.3333V35.096" stroke="#AC3378" stroke-width="3" stroke-linecap="round" stroke-linejoin="round"/>
<path d="M29.5498 47.244C30.6258 47.988 31.9271 48.4293 33.3338 48.4293C34.2165 48.4293 35.0538 48.2493 35.8245 47.9373L39.8365 51.944C40.0871 52.1933 40.4258 52.3333 40.7778 52.3333H42.6671C43.4031 52.3333 44.0005 51.736 44.0005 51V49.1173C44.0005 48.7627 43.8591 48.424 43.6085 48.1733L39.5498 44.12C39.8298 43.3853 40.0005 42.596 40.0005 41.7627C40.0005 38.0813 37.0151 35.096 33.3338 35.096C32.2885 35.096 31.3125 35.3573 30.4325 35.7867" stroke="#AC3378" stroke-width="3" stroke-linecap="round" stroke-linejoin="round"/>
<path fill-rule="evenodd" clip-rule="evenodd" d="M24.005 47.3573C23.2623 47.0333 22.561 46.5813 21.953 45.9733C19.349 43.3693 19.349 39.1493 21.953 36.5453C24.557 33.9413 28.777 33.9413 31.381 36.5453C33.985 39.1493 33.985 43.3693 31.381 45.9733C30.7757 46.5787 30.077 47.028 29.3383 47.352L29.3423 53.0013C29.3423 53.356 29.2023 53.6947 28.9517 53.9453L27.621 55.276C27.0997 55.7973 26.2557 55.7973 25.7357 55.276L24.3997 53.94C24.1503 53.6907 24.009 53.352 24.009 52.9987L24.005 47.3573Z" stroke="#AC3378" stroke-width="3" stroke-linecap="round" stroke-linejoin="round"/>
</svg>
