<svg width="62" height="73" viewBox="0 0 62 73" fill="none" xmlns="http://www.w3.org/2000/svg">
<path d="M52.6901 15.8122C58.3261 23.071 61.1507 31.4024 61.1507 40.78C61.1507 49.8046 58.248 57.3773 52.4558 63.4983C46.6635 69.6062 39.4915 72.6667 30.9658 72.6667C22.1798 72.6667 14.8256 69.6324 8.89015 63.5768C2.96772 57.495 0 49.9877 0 41.0547C0 32.5533 2.78549 25.4253 8.34346 19.6705C13.9144 13.9157 21.0995 10.7768 29.9375 10.2405V0.666687C39.4655 3.50483 47.054 8.55334 52.6901 15.8122Z" fill="#F8E7F1"/>
<path d="M29.6667 30.6667H25.4C23.1598 30.6667 22.0397 30.6667 21.184 31.1027C20.4314 31.4861 19.8195 32.0981 19.436 32.8507C19 33.7064 19 34.8265 19 37.0667V48.2667C19 50.5069 19 51.627 19.436 52.4826C19.8195 53.2353 20.4314 53.8472 21.184 54.2307C22.0397 54.6667 23.1598 54.6667 25.4 54.6667H36.6C38.8402 54.6667 39.9603 54.6667 40.816 54.2307C41.5686 53.8472 42.1805 53.2353 42.564 52.4826C43 51.627 43 50.5069 43 48.2667V44M31 37.3333H36.3333V42.6667M35.6667 31.3333V29.3333M40.9191 32.7476L42.3333 31.3333M42.347 38H44.347M19 44.4628C19.8693 44.597 20.7598 44.6667 21.6667 44.6667C27.5151 44.6667 32.6871 41.7701 35.8262 37.3333" stroke="#AC3378" stroke-width="3" stroke-linecap="round" stroke-linejoin="round"/>
</svg>
