<svg width="44" height="21" viewBox="0 0 44 21" fill="none" xmlns="http://www.w3.org/2000/svg">
<g clip-path="url(#clip0_2356_66146)">
<path d="M43.9997 3.81836V13.9165L42.6094 15.2796V5.39853L43.9997 3.81836Z" fill="#E79224"/>
<path d="M34.8876 3.82689L33.4473 5.39853L33.5218 5.49901L42.5514 5.46583L42.6344 5.39853L44.0002 3.81836L34.8876 3.82689Z" fill="#FFF171"/>
<mask id="mask0_2356_66146" style="mask-type:luminance" maskUnits="userSpaceOnUse" x="33" y="5" width="10" height="11">
<path d="M42.6344 5.40039H33.4473V15.29H42.6344V5.40039Z" fill="white"/>
</mask>
<g mask="url(#mask0_2356_66146)">
<path d="M42.6344 5.40039H33.4473V15.29H42.6344V5.40039Z" fill="url(#paint0_linear_2356_66146)"/>
</g>
<path d="M41.2344 8.95919C41.0524 8.50135 40.7788 8.08616 40.4232 7.72785C40.0837 7.37807 39.7036 7.11265 39.2725 6.93824C38.8509 6.76382 38.3953 6.67188 37.8992 6.67188C37.403 6.67188 36.9389 6.76382 36.5173 6.93824C36.0872 7.11265 35.7061 7.37902 35.3666 7.72785C35.011 8.08521 34.7459 8.50135 34.5639 8.95919C34.3818 9.41703 34.2988 9.91563 34.2988 10.4645C34.2988 11.0133 34.3894 11.4958 34.5714 11.9622C34.7535 12.4276 35.0185 12.8437 35.3741 13.2096C35.7052 13.5509 36.0863 13.8087 36.5079 13.9831C36.9295 14.1575 37.4021 14.2495 37.9067 14.2495C38.4113 14.2495 38.8499 14.1575 39.2725 13.9831C39.6941 13.8087 40.0837 13.5509 40.4232 13.2096C40.7788 12.8437 41.0524 12.4276 41.2344 11.9707C41.4165 11.5129 41.508 11.0057 41.508 10.474C41.508 9.94217 41.4165 9.41798 41.2344 8.96013M39.3395 12.221C38.9839 12.6456 38.5123 12.8617 37.8992 12.8617C37.286 12.8617 36.8069 12.6456 36.4503 12.221C36.0947 11.7972 35.9212 11.2057 35.9212 10.4578C35.9212 9.70993 36.1032 9.10232 36.4503 8.66913C36.8059 8.23688 37.2785 8.02929 37.8992 8.02929C38.5198 8.02929 38.9829 8.24541 39.3395 8.66913C39.6875 9.10137 39.8686 9.69192 39.8686 10.4578C39.8686 11.2237 39.6951 11.7972 39.3395 12.221Z" fill="white"/>
<path d="M32.5456 2.99609V3.04539L33.7208 12.1197L33.0342 14.0326L32.9427 13.9663L31.7344 5.26634L31.7589 5.14975L32.5125 3.04539L32.5456 2.99609Z" fill="#0999D6"/>
<path d="M23.4979 4.25966L32.5444 2.99609L31.7833 5.17534L31.6748 5.29099L23.2168 6.53939L23.2583 4.98387L23.4979 4.25966Z" fill="#91C9ED"/>
<mask id="mask1_2356_66146" style="mask-type:luminance" maskUnits="userSpaceOnUse" x="22" y="5" width="12" height="11">
<path d="M23.4415 6.3237L22.9199 6.73131L24.1197 15.29L33.0333 14.034L31.7844 5.17578L23.4415 6.3237Z" fill="white"/>
</mask>
<g mask="url(#mask1_2356_66146)">
<path d="M17.9766 11.3002L29.0435 20.2324L37.976 9.1646L26.908 0.232422L17.9766 11.3002Z" fill="url(#paint1_linear_2356_66146)"/>
</g>
<path d="M30.2699 6.87064C30.2284 6.59574 30.1378 6.38815 29.9888 6.24691C29.8643 6.13885 29.7153 6.08008 29.5417 6.08008C29.5002 6.08008 29.4502 6.08008 29.4012 6.08861C29.1691 6.12179 28.9956 6.22985 28.888 6.40426C28.805 6.52939 28.772 6.68674 28.772 6.86969C28.772 6.93604 28.7805 7.01093 28.7881 7.08581L29.1106 9.38924L26.5451 9.7722L26.2225 7.46782C26.181 7.20146 26.0904 6.99387 25.9414 6.85263C25.8169 6.73603 25.6678 6.67821 25.5028 6.67821C25.4613 6.67821 25.4198 6.67821 25.3783 6.68674C25.1387 6.71992 24.9566 6.82798 24.8406 7.0024C24.7576 7.12752 24.7246 7.28582 24.7246 7.46782C24.7246 7.53418 24.7331 7.60906 24.7416 7.69248L25.6188 13.689C25.6603 13.9639 25.7508 14.1715 25.9169 14.3127C26.0414 14.4208 26.1904 14.471 26.3724 14.471C26.4224 14.471 26.4715 14.471 26.5215 14.4625C26.745 14.4293 26.9101 14.3212 27.0176 14.1468C27.0921 14.0217 27.1251 13.8729 27.1251 13.6975C27.1251 13.6311 27.1167 13.5563 27.1082 13.4814L26.7526 11.1106L29.3182 10.7277L29.6738 13.0984C29.7153 13.3733 29.8058 13.5809 29.9633 13.7136C30.0878 13.8217 30.2369 13.8804 30.4104 13.8804C30.4519 13.8804 30.501 13.8804 30.551 13.8719C30.783 13.8387 30.9566 13.7307 31.0641 13.5553C31.1386 13.4302 31.1801 13.2804 31.1801 13.0975C31.1801 13.0311 31.1716 12.9562 31.1631 12.8813L30.2689 6.86779L30.2699 6.87064Z" fill="white"/>
<path d="M15.0318 0.683594L11.8125 8.36927L12.2511 11.7457L12.2756 11.7381L15.8929 3.56146L15.876 3.38704L15.0978 0.791656L15.0318 0.683594Z" fill="#69BE6C"/>
<path d="M15.0332 0.683594L15.8689 3.50363L15.8859 3.56146L23.8477 7.14646L23.8723 7.1294L23.1941 4.43543L15.0332 0.683594Z" fill="#97CF9F"/>
<mask id="mask2_2356_66146" style="mask-type:luminance" maskUnits="userSpaceOnUse" x="12" y="3" width="12" height="13">
<path d="M12.252 11.746L20.2553 15.3727L23.8717 7.12967L15.8683 3.50391L12.252 11.746Z" fill="white"/>
</mask>
<g mask="url(#mask2_2356_66146)">
<path d="M23.8717 3.50391H12.252V15.3727H23.8717V3.50391Z" fill="url(#paint2_linear_2356_66146)"/>
</g>
<path d="M21.4457 7.79659C21.2722 7.33116 21.0317 6.93114 20.7176 6.59938C20.4025 6.26666 20.0224 6.00029 19.5753 5.80882C19.1282 5.61734 18.6811 5.52539 18.2265 5.52539H18.201C17.7379 5.52539 17.2823 5.63345 16.8352 5.83346C16.3636 6.04105 15.958 6.32448 15.61 6.69796C15.2628 7.06385 14.9808 7.51316 14.7658 8.02883C14.5507 8.53596 14.4347 9.05162 14.4102 9.55876V9.73317C14.4102 10.1825 14.4847 10.6233 14.6422 11.0555C14.8073 11.5134 15.0478 11.9039 15.3619 12.2366C15.6769 12.5693 16.0655 12.8357 16.5287 13.0272C16.9673 13.2186 17.4144 13.3096 17.869 13.3096H17.8775C18.3331 13.3096 18.7877 13.2101 19.2348 13.0186C19.7064 12.811 20.1205 12.52 20.4676 12.1456C20.8147 11.7797 21.1052 11.3389 21.3203 10.8233C21.5353 10.3076 21.6514 9.80047 21.6759 9.29334V9.14357C21.6844 8.68573 21.6099 8.23737 21.4439 7.79659M19.846 10.192C19.548 10.9076 19.1424 11.3977 18.6547 11.6641C18.3897 11.8053 18.1171 11.8802 17.8435 11.8802C17.603 11.8802 17.3474 11.8224 17.0908 11.7134C16.5277 11.4726 16.1806 11.0896 16.0316 10.5408C15.9816 10.3578 15.9571 10.1664 15.9571 9.96731C15.9571 9.56824 16.0561 9.12746 16.2551 8.6535C16.5617 7.92171 16.9673 7.42216 17.4549 7.14822C17.72 6.99845 17.9926 6.93209 18.2661 6.93209C18.5142 6.93209 18.7622 6.98991 19.0273 7.09892C19.5819 7.33969 19.929 7.72265 20.0781 8.27149C20.128 8.44591 20.1526 8.63739 20.1526 8.83739C20.1526 9.25353 20.0535 9.70189 19.846 10.1929" fill="white"/>
<path d="M11.1745 1.99023L12.4827 10.7897L11.8866 13.8837L11.8036 13.7756L10.5293 5.2757V5.10887L11.0915 2.14L11.1745 1.99023Z" fill="#761116"/>
<path d="M1.625 6.53927L2.24565 3.42917L11.1762 1.99023L10.5716 5.15911V5.3667L1.73253 6.62268L1.625 6.53927Z" fill="#EE463E"/>
<mask id="mask3_2356_66146" style="mask-type:luminance" maskUnits="userSpaceOnUse" x="1" y="5" width="11" height="11">
<path d="M1.625 6.53836L3.04834 15.2724L11.8883 13.8837L10.5725 5.1582L1.625 6.53836Z" fill="white"/>
</mask>
<g mask="url(#mask3_2356_66146)">
<path d="M0 5.41834L1.88836 16.8729L13.5118 15.0112L11.6235 3.55664L0 5.41834Z" fill="url(#paint3_linear_2356_66146)"/>
</g>
<path d="M9.61974 12.4955C9.55371 12.4121 9.45373 12.3543 9.33865 12.3126C9.22264 12.2709 9.08209 12.2538 8.90854 12.2538C8.75102 12.2538 8.56897 12.2709 8.3709 12.304L6.03639 12.7031C6.06091 12.5202 6.15241 12.287 6.30993 11.996C6.48348 11.6718 6.74853 11.2803 7.0881 10.8319C7.20411 10.6736 7.29467 10.557 7.36163 10.4746C7.40314 10.4167 7.46916 10.3409 7.55217 10.2328C8.08981 9.5257 8.4124 8.95221 8.54539 8.5029C8.61991 8.24507 8.66141 7.98724 8.67745 7.7294C8.68594 7.65452 8.68594 7.58817 8.68594 7.52181C8.68594 7.33886 8.6699 7.15592 8.63594 6.97297C8.61142 6.80614 8.56992 6.67343 8.51144 6.56537C8.4539 6.45731 8.38693 6.37389 8.30487 6.32365C8.21338 6.26583 8.07283 6.24023 7.89928 6.24023C7.75874 6.24023 7.58518 6.25635 7.37767 6.29047L4.67908 6.7559C4.35649 6.81467 4.10842 6.90567 3.95939 7.05544C3.83488 7.17203 3.77734 7.3218 3.77734 7.48769C3.77734 7.52939 3.77734 7.57869 3.78583 7.62893C3.82734 7.86211 3.94335 8.028 4.13389 8.11141C4.2499 8.16165 4.38196 8.1863 4.54797 8.1863C4.6555 8.1863 4.78 8.17777 4.91206 8.15312L7.16356 7.75405C7.16356 7.79576 7.17204 7.83747 7.17204 7.87064C7.17204 8.01188 7.14752 8.15312 7.09753 8.28678C7.0315 8.47825 6.86549 8.74462 6.5929 9.08492C6.51838 9.17687 6.40237 9.32664 6.24484 9.51717C5.63269 10.2575 5.20163 10.8897 4.93752 11.4139C4.74699 11.7798 4.62248 12.1287 4.54891 12.487C4.50741 12.6946 4.48288 12.886 4.48288 13.0775C4.48288 13.2102 4.49137 13.3439 4.5159 13.4681C4.54891 13.651 4.59041 13.8008 4.64795 13.9174C4.70643 14.034 4.78849 14.1259 4.87998 14.1752C4.97054 14.2245 5.09504 14.2416 5.27709 14.2416C5.50063 14.2416 5.80624 14.2084 6.1958 14.142L8.64538 13.7183C9.07549 13.6434 9.38204 13.5354 9.5556 13.3941C9.69614 13.2775 9.77066 13.1192 9.77066 12.9372C9.77066 12.887 9.76217 12.8377 9.75368 12.7875C9.73764 12.6794 9.69614 12.5789 9.62162 12.4965" fill="white"/>
</g>
<defs>
<linearGradient id="paint0_linear_2356_66146" x1="37.9904" y1="3.84316" x2="37.9904" y2="13.2812" gradientUnits="userSpaceOnUse">
<stop stop-color="#FFE501"/>
<stop offset="1" stop-color="#FCB823"/>
</linearGradient>
<linearGradient id="paint1_linear_2356_66146" x1="172.941" y1="125.218" x2="182.228" y2="132.641" gradientUnits="userSpaceOnUse">
<stop stop-color="#1A8BCB"/>
<stop offset="1" stop-color="#00649D"/>
</linearGradient>
<linearGradient id="paint2_linear_2356_66146" x1="16.4171" y1="5.55701" x2="16.4171" y2="13.8256" gradientUnits="userSpaceOnUse">
<stop stop-color="#26A049"/>
<stop offset="1" stop-color="#008A52"/>
</linearGradient>
<linearGradient id="paint3_linear_2356_66146" x1="33.7583" y1="188.78" x2="35.1878" y2="197.363" gradientUnits="userSpaceOnUse">
<stop stop-color="#D82231"/>
<stop offset="1" stop-color="#BA2435"/>
</linearGradient>
<clipPath id="clip0_2356_66146">
<rect width="44" height="20" fill="white" transform="translate(0 0.232422)"/>
</clipPath>
</defs>
</svg>
